<svg width="240" height="60" viewBox="0 0 240 60" fill="none" xmlns="http://www.w3.org/2000/svg">
<path d="M33.1975 47.9817H7.60981C4.77596 47.9817 3.42365 44.4971 5.51904 42.591L24.7006 25.094H8.94365C7.23134 25.094 5.84212 23.7048 5.84212 21.9925V20.6125C5.84212 20.234 6.15135 19.9248 6.52981 19.9248H30.036C32.8698 19.9248 34.2221 23.4094 32.1267 25.3156L12.9452 42.8125H30.7837C32.496 42.8125 33.8852 44.2017 33.8852 45.914V47.294C33.8852 47.6725 33.576 47.9817 33.1975 47.9817Z" fill="#040B29"/>
<path d="M122.9 47.9812H105.099C104.716 47.9812 104.411 47.672 104.411 47.2935V45.9135C104.411 44.2012 105.8 42.812 107.513 42.812H123.007C125.259 42.812 125.6 40.8551 125.642 40.4628C125.688 40.0704 125.803 38.0904 123.611 37.5735L111.44 34.7212C107.61 33.8212 105.247 30.4658 105.699 26.5566C106.151 22.6474 109.216 19.9197 113.153 19.9197H146.937C147.32 19.9197 147.625 20.2289 147.625 20.6074V21.9874C147.625 23.6997 146.236 25.0889 144.523 25.0889H113.153C111.223 25.0889 110.891 26.6674 110.836 27.152C110.78 27.6366 110.743 29.2474 112.617 29.6904L124.788 32.5428C128.771 33.4751 131.231 36.9551 130.779 41.012C130.336 44.9951 126.907 47.9812 122.896 47.9812H122.9Z" fill="#040B29"/>
<path d="M89.4081 47.9812C81.4419 47.9812 74.9619 41.6858 74.9619 33.9504C74.9619 26.2151 81.4419 19.9197 89.4081 19.9197C97.3742 19.9197 103.854 26.2151 103.854 33.9504C103.854 41.6858 97.3742 47.9812 89.4081 47.9812ZM89.4081 25.0889C84.2942 25.0889 80.1311 29.0628 80.1311 33.9504C80.1311 38.8381 84.2942 42.812 89.4081 42.812C94.5219 42.812 98.685 38.8381 98.685 33.9504C98.685 29.0628 94.5219 25.0889 89.4081 25.0889Z" fill="#040B29"/>
<path d="M61.3372 36.194C62.0525 36.194 62.6618 35.6448 62.7125 34.934C62.7356 34.611 62.7448 34.2833 62.7448 33.9556C62.7448 26.2202 56.2648 19.9248 48.2987 19.9248C40.3325 19.9248 33.8525 26.2156 33.8525 33.9556C33.8525 41.6956 40.3325 47.9863 48.2987 47.9863C53.8741 47.9863 58.7248 44.9033 61.1295 40.394C61.3925 39.9048 61.0325 39.314 60.4787 39.314H56.9341C56.1633 39.314 55.4433 39.6417 54.8941 40.1771C53.2095 41.8063 50.8741 42.8171 48.2987 42.8171C43.9925 42.8171 40.3648 40.0017 39.3264 36.1986H61.3372V36.194ZM48.2987 25.0894C52.3372 25.0894 55.7802 27.5725 57.0495 31.0202H39.5433C40.8125 27.5725 44.2556 25.0894 48.2987 25.0894Z" fill="#040B29"/>
<path d="M175.156 36.194C175.872 36.194 176.481 35.6448 176.532 34.934C176.555 34.611 176.564 34.2833 176.564 33.9556C176.564 26.2202 170.084 19.9248 162.118 19.9248C154.152 19.9248 147.672 26.2156 147.672 33.9556C147.672 41.6956 154.152 47.9863 162.118 47.9863C167.693 47.9863 172.544 44.9033 174.949 40.394C175.212 39.9048 174.852 39.314 174.298 39.314H170.753C169.983 39.314 169.263 39.6417 168.713 40.1771C167.029 41.8063 164.693 42.8171 162.118 42.8171C157.812 42.8171 154.184 40.0017 153.146 36.1986H175.156V36.194ZM162.123 25.0894C166.161 25.0894 169.604 27.5725 170.873 31.0202H153.367C154.636 27.5725 158.08 25.0894 162.123 25.0894Z" fill="#040B29"/>
<path d="M70.7481 48H69.3681C67.6558 48 66.2666 46.6108 66.2666 44.8985V15.1015C66.2666 13.3892 67.6558 12 69.3681 12H70.7481C71.1312 12 71.4358 12.3092 71.4358 12.6877V47.3077C71.4358 47.6862 71.1266 47.9954 70.7481 47.9954V48Z" fill="#040B29"/>
<path d="M146.938 47.9815H142.891C138.095 47.9815 134.209 44.0954 134.209 39.3046V15.1015C134.209 13.3892 135.598 12 137.311 12H138.691C139.074 12 139.378 12.3092 139.378 12.6877V39.3C139.378 41.2385 140.952 42.8077 142.891 42.8077H144.524C146.237 42.8077 147.626 44.1969 147.626 45.9092V47.2892C147.626 47.6677 147.317 47.9769 146.938 47.9769V47.9815Z" fill="#040B29"/>
<path d="M223.398 19.4585C219.641 19.4585 216.369 21.5262 214.652 24.5862V12.6877C214.652 12.3092 214.342 12 213.964 12H212.584C210.872 12 209.482 13.3892 209.482 15.1015V47.3123C209.482 47.6908 209.792 48 210.17 48H211.55C213.262 48 214.652 46.6108 214.652 44.8985V31.9615C214.652 27.9138 217.938 24.6323 222.027 24.6323H222.212C226.144 24.6323 229.329 27.8169 229.329 31.7446V47.2938C229.329 47.6723 229.638 47.9815 230.016 47.9815H231.396C233.109 47.9815 234.498 46.5923 234.498 44.88V30.5585C234.498 24.4292 229.527 19.4631 223.393 19.4631H223.398V19.4585Z" fill="#040B29"/>
<path d="M193.91 42.8125C188.796 42.8125 184.633 38.8433 184.633 33.9556C184.633 29.0679 188.796 25.094 193.91 25.094C196.799 25.094 199.393 26.3679 201.092 28.3571C201.641 29.0033 202.416 29.4094 203.265 29.4094H206.487C207.018 29.4094 207.378 28.8602 207.161 28.3756C204.941 23.4094 199.836 19.9248 193.91 19.9248C185.944 19.9248 179.464 26.2156 179.464 33.9602C179.464 41.7048 185.944 47.9863 193.91 47.9863C199.832 47.9863 204.941 44.5063 207.161 39.531C207.378 39.0463 207.018 38.4971 206.487 38.4971H203.275C202.425 38.4971 201.645 38.9033 201.096 39.5494C199.398 41.5387 196.808 42.8125 193.91 42.8125Z" fill="#040B29"/>
</svg>
