<svg width="20" height="20" viewBox="0 0 20 20" fill="none" xmlns="http://www.w3.org/2000/svg">
<path d="M17.375 2.08325C18.1344 2.08325 18.75 2.69886 18.75 3.45825V15.1249C18.75 15.5567 18.2454 15.8167 17.8938 15.5659L14.8333 13.3833V14.9999C14.8333 15.2991 14.5908 15.5416 14.2917 15.5416H5.7404L2.10068 18.0698C1.74843 18.3146 1.25 18.0538 1.25 17.6249V5.95825C1.25 5.6591 1.49251 5.41659 1.79167 5.41659H5.16583L5.16667 3.45825C5.16667 2.68483 5.79526 2.11501 6.54167 2.08325H17.375ZM13.75 6.49992H2.33333V16.5892L5.26172 14.5551C5.35245 14.492 5.46027 14.4583 5.57073 14.4583H13.75V6.49992ZM17.375 3.16659H6.54167C6.38058 3.16659 6.25 3.29717 6.25 3.45825L6.24917 5.41659H14.2917C14.5908 5.41659 14.8333 5.6591 14.8333 5.95825V12.0524L17.6667 14.0733V3.45825C17.6667 3.29717 17.5361 3.16659 17.375 3.16659Z" fill="#8E919F"/>
</svg>
