<svg width="20" height="20" viewBox="0 0 20 20" fill="none" xmlns="http://www.w3.org/2000/svg">
<path d="M11.8639 6.44067C11.8639 7.47875 11.0264 8.32027 9.99323 8.32027C8.96009 8.32027 8.12256 7.47875 8.12256 6.44067C8.12256 5.4026 8.96009 4.56108 9.99323 4.56108C11.0264 4.56108 11.8639 5.4026 11.8639 6.44067ZM9.20339 6.44067C9.20339 6.87897 9.55702 7.23428 9.99323 7.23428C10.4294 7.23428 10.7831 6.87897 10.7831 6.44067C10.7831 6.00238 10.4294 5.64707 9.99323 5.64707C9.55702 5.64707 9.20339 6.00238 9.20339 6.44067Z" fill="#8E919F"/>
<path d="M15.4549 13.8091L17.8292 18.0829H2.17024L4.54458 13.8091H4.7498C5.34811 13.8091 5.83313 13.3241 5.83313 12.7257H4.22586C4.02915 12.7257 3.8479 12.8324 3.75236 13.0044L0.776173 18.3615C0.682967 18.5293 0.685498 18.7338 0.782828 18.8993C0.880157 19.0647 1.05775 19.1662 1.24967 19.1662H18.7498C18.9417 19.1662 19.1193 19.0647 19.2166 18.8993C19.314 18.7338 19.3165 18.5293 19.2233 18.3615L16.2471 13.0044C16.1516 12.8324 15.9703 12.7257 15.7736 12.7257H13.2324C14.4093 11.0527 15.5409 8.81585 15.5409 6.37492C15.5409 3.57126 13.0764 0.833252 9.99927 0.833252C6.92216 0.833252 4.4576 3.57126 4.4576 6.37492C4.4576 9.02246 5.78893 11.4299 7.06534 13.1383C7.70886 13.9996 8.35145 14.7006 8.83338 15.1866C9.07463 15.4299 9.2764 15.6201 9.41893 15.7505C9.49021 15.8156 9.54675 15.8659 9.58607 15.9003C9.60573 15.9176 9.62109 15.9309 9.63185 15.9401L9.64449 15.9509L9.64816 15.954L9.64972 15.9554C9.85146 16.1256 10.1468 16.1258 10.3485 15.9556L10.349 15.952L10.3492 15.955L10.3504 15.954L10.354 15.9509L10.3667 15.9401L10.3756 15.9324L10.3985 15.9125L10.4019 15.9096L10.4125 15.9003C10.4518 15.8659 10.5083 15.8156 10.5796 15.7505C10.7221 15.6201 10.9239 15.4299 11.1652 15.1866C11.515 14.8338 11.9496 14.3676 12.4077 13.8091H15.4549ZM5.54093 6.37492C5.54093 4.13597 7.55352 1.91659 9.99927 1.91659C12.445 1.91659 14.4576 4.13597 14.4576 6.37492C14.4576 8.67622 13.2889 10.8521 12.0653 12.4899C11.4589 13.3016 10.8515 13.9644 10.3959 14.4238C10.2447 14.5763 10.1106 14.706 9.99927 14.811C9.88789 14.706 9.7538 14.5763 9.60266 14.4238C9.14708 13.9644 8.53968 13.3016 7.9332 12.4899C6.7096 10.8521 5.54093 8.67622 5.54093 6.37492Z" fill="#8E919F"/>
</svg>
