<svg width="20" height="20" viewBox="0 0 20 20" fill="none" xmlns="http://www.w3.org/2000/svg">
<path d="M14.4906 9.34998C14.3979 6.13757 13.6226 3.33792 12.4836 1.65964C15.0246 2.41518 17.0794 4.30032 18.0657 6.73284C18.3587 7.4555 19.0201 8 19.8 8C18.8734 3.43552 14.8379 0 10 0C4.69553 0 0.3557 4.13009 0.0207881 9.34998H0V10.65H0.020785C0.355673 15.8699 4.69552 20 10 20C15.3045 20 19.6443 15.8699 19.9792 10.65C19.9899 10.4834 19.9923 10.2506 19.9912 10.028C19.9894 9.65003 19.679 9.35 19.301 9.35L14.4906 9.34998ZM10 18.7C9.58756 18.7 8.78124 18.2659 8.00352 16.5376C7.34107 15.0655 6.88198 13.0021 6.80992 10.65H13.1901C13.118 13.0021 12.6589 15.0655 11.9965 16.5376C11.2188 18.2659 10.4124 18.7 10 18.7ZM6.80992 9.34998C6.88199 6.99788 7.34108 4.93449 8.00352 3.46241C8.78124 1.73414 9.58756 1.3 10 1.3C10.4124 1.3 11.2188 1.73414 11.9965 3.46241C12.6589 4.93449 13.118 6.99788 13.1901 9.34998H6.80992ZM14.4906 10.65H18.6761C18.4062 14.3043 15.879 17.3308 12.4836 18.3404C13.6226 16.6621 14.3979 13.8624 14.4906 10.65ZM1.32391 10.65H5.50935C5.6021 13.8624 6.37742 16.6621 7.51642 18.3404C4.121 17.3308 1.59381 14.3043 1.32391 10.65ZM1.32392 9.34998C1.59383 5.69568 4.12101 2.66921 7.51641 1.65964C6.37742 3.33792 5.6021 6.13757 5.50935 9.34998H1.32392Z" fill="#F5F6F7"/>
</svg>
