<svg width="160" height="40" viewBox="0 0 160 40" fill="none" xmlns="http://www.w3.org/2000/svg">
<path d="M22.1317 31.9877H5.0732C3.18397 31.9877 2.28244 29.6646 3.67936 28.3938L16.467 16.7292H5.96244C4.8209 16.7292 3.89474 15.8031 3.89474 14.6615V13.7415C3.89474 13.4892 4.1009 13.2831 4.35321 13.2831H20.024C21.9132 13.2831 22.8147 15.6061 21.4178 16.8769L8.63013 28.5415H20.5224C21.664 28.5415 22.5901 29.4677 22.5901 30.6092V31.5292C22.5901 31.7815 22.384 31.9877 22.1317 31.9877Z" fill="white"/>
<path d="M81.9336 31.9877H70.0659C69.8105 31.9877 69.6074 31.7815 69.6074 31.5292V30.6092C69.6074 29.4677 70.5336 28.5415 71.6751 28.5415H82.0043C83.5059 28.5415 83.7336 27.2369 83.7613 26.9754C83.792 26.7138 83.869 25.3938 82.4074 25.0492L74.2936 23.1477C71.7397 22.5477 70.1643 20.3108 70.4659 17.7046C70.7674 15.0985 72.8105 13.28 75.4351 13.28H97.9582C98.2136 13.28 98.4167 13.4861 98.4167 13.7385V14.6585C98.4167 15.8 97.4905 16.7261 96.349 16.7261H75.4351C74.149 16.7261 73.9274 17.7785 73.8905 18.1015C73.8536 18.4246 73.829 19.4985 75.0782 19.7938L83.192 21.6954C85.8474 22.3169 87.4874 24.6369 87.1859 27.3415C86.8905 29.9969 84.6043 31.9877 81.9305 31.9877H81.9336Z" fill="white"/>
<path d="M59.6054 31.9877C54.2946 31.9877 49.9746 27.7908 49.9746 22.6338C49.9746 17.4769 54.2946 13.28 59.6054 13.28C64.9161 13.28 69.2361 17.4769 69.2361 22.6338C69.2361 27.7908 64.9161 31.9877 59.6054 31.9877ZM59.6054 16.7261C56.1961 16.7261 53.4208 19.3754 53.4208 22.6338C53.4208 25.8923 56.1961 28.5415 59.6054 28.5415C63.0146 28.5415 65.79 25.8923 65.79 22.6338C65.79 19.3754 63.0146 16.7261 59.6054 16.7261Z" fill="white"/>
<path d="M40.8914 24.1292C41.3684 24.1292 41.7745 23.7631 41.8084 23.2892C41.8237 23.0738 41.8299 22.8554 41.8299 22.6369C41.8299 17.48 37.5099 13.2831 32.1991 13.2831C26.8884 13.2831 22.5684 17.4769 22.5684 22.6369C22.5684 27.7969 26.8884 31.9908 32.1991 31.9908C35.916 31.9908 39.1499 29.9354 40.753 26.9292C40.9284 26.6031 40.6884 26.2092 40.3191 26.2092H37.9561C37.4422 26.2092 36.9622 26.4277 36.5961 26.7846C35.473 27.8708 33.916 28.5446 32.1991 28.5446C29.3284 28.5446 26.9099 26.6677 26.2176 24.1323H40.8914V24.1292ZM32.1991 16.7261C34.8914 16.7261 37.1868 18.3815 38.033 20.68H26.3622C27.2084 18.3815 29.5037 16.7261 32.1991 16.7261Z" fill="white"/>
<path d="M116.771 24.1292C117.248 24.1292 117.654 23.7631 117.688 23.2892C117.704 23.0738 117.71 22.8554 117.71 22.6369C117.71 17.48 113.39 13.2831 108.079 13.2831C102.768 13.2831 98.4482 17.4769 98.4482 22.6369C98.4482 27.7969 102.768 31.9908 108.079 31.9908C111.796 31.9908 115.03 29.9354 116.633 26.9292C116.808 26.6031 116.568 26.2092 116.199 26.2092H113.836C113.322 26.2092 112.842 26.4277 112.476 26.7846C111.353 27.8708 109.796 28.5446 108.079 28.5446C105.208 28.5446 102.79 26.6677 102.097 24.1323H116.771V24.1292ZM108.082 16.7261C110.774 16.7261 113.07 18.3815 113.916 20.68H102.245C103.091 18.3815 105.387 16.7261 108.082 16.7261Z" fill="white"/>
<path d="M47.1654 32H46.2454C45.1039 32 44.1777 31.0738 44.1777 29.9323V10.0677C44.1777 8.92615 45.1039 8 46.2454 8H47.1654C47.4208 8 47.6239 8.20615 47.6239 8.45846V31.5385C47.6239 31.7908 47.4177 31.9969 47.1654 31.9969V32Z" fill="white"/>
<path d="M97.9588 31.9877H95.2603C92.0634 31.9877 89.4727 29.3969 89.4727 26.2031V10.0677C89.4727 8.92615 90.3988 8 91.5403 8H92.4603C92.7157 8 92.9188 8.20615 92.9188 8.45846V26.2C92.9188 27.4923 93.968 28.5385 95.2603 28.5385H96.3496C97.4911 28.5385 98.4173 29.4646 98.4173 30.6062V31.5262C98.4173 31.7785 98.2111 31.9846 97.9588 31.9846V31.9877Z" fill="white"/>
<path d="M148.932 12.9723C146.428 12.9723 144.246 14.3508 143.101 16.3908V8.45846C143.101 8.20615 142.895 8 142.643 8H141.723C140.581 8 139.655 8.92615 139.655 10.0677V31.5415C139.655 31.7938 139.861 32 140.114 32H141.034C142.175 32 143.101 31.0738 143.101 29.9323V21.3077C143.101 18.6092 145.292 16.4215 148.018 16.4215H148.141C150.763 16.4215 152.886 18.5446 152.886 21.1631V31.5292C152.886 31.7815 153.092 31.9877 153.345 31.9877H154.265C155.406 31.9877 156.332 31.0615 156.332 29.92V20.3723C156.332 16.2862 153.018 12.9754 148.929 12.9754H148.932V12.9723Z" fill="white"/>
<path d="M129.273 28.5415C125.864 28.5415 123.089 25.8954 123.089 22.6369C123.089 19.3785 125.864 16.7292 129.273 16.7292C131.199 16.7292 132.929 17.5785 134.061 18.9046C134.427 19.3354 134.944 19.6061 135.51 19.6061H137.658C138.012 19.6061 138.252 19.24 138.107 18.9169C136.627 15.6061 133.224 13.2831 129.273 13.2831C123.963 13.2831 119.643 17.4769 119.643 22.64C119.643 27.8031 123.963 31.9908 129.273 31.9908C133.221 31.9908 136.627 29.6708 138.107 26.3538C138.252 26.0308 138.012 25.6646 137.658 25.6646H135.516C134.95 25.6646 134.43 25.9354 134.064 26.3661C132.932 27.6923 131.206 28.5415 129.273 28.5415Z" fill="white"/>
</svg>
